<?xml version="1.0" standalone="no"?>
<!DOCTYPE svg PUBLIC "-//W3C//DTD SVG 20010904//EN"
 "http://www.w3.org/TR/2001/REC-SVG-20010904/DTD/svg10.dtd">
<svg version="1.0" xmlns="http://www.w3.org/2000/svg"
 width="700.000000pt" height="700.000000pt" viewBox="0 0 700.000000 700.000000"
 preserveAspectRatio="xMidYMid meet">
<metadata>
Created by potrace 1.11, written by Peter Selinger 2001-2013
</metadata>
<g transform="translate(0.000000,700.000000) scale(0.100000,-0.100000)"
fill="#000000" stroke="none">
<path d="M2755 4491 c-202 -58 -359 -219 -453 -466 -63 -167 -97 -344 -117
-615 -12 -161 -6 -653 10 -785 2 -16 6 -66 10 -110 4 -44 9 -82 10 -85 2 -3 6
-30 10 -60 4 -30 14 -84 22 -120 8 -36 17 -73 19 -84 8 -42 57 -184 84 -244
95 -207 259 -356 445 -402 74 -18 242 -20 319 -4 243 51 430 233 541 529 26
71 84 286 90 340 2 17 7 50 10 75 3 25 8 61 10 80 8 60 17 233 18 348 l1 110
44 6 c59 8 102 39 102 75 0 37 -25 57 -90 75 -101 27 -390 4 -607 -49 -121
-30 -170 -50 -190 -81 -12 -20 -12 -25 9 -48 39 -43 147 -53 278 -24 63 14 54
11 105 26 36 10 111 16 158 13 13 -1 16 -7 13 -23 -3 -13 -8 -50 -11 -83 -13
-125 -16 -151 -25 -205 -5 -30 -12 -73 -16 -95 -8 -59 -55 -278 -61 -288 -2
-4 -7 -19 -9 -34 -8 -45 -73 -210 -108 -274 -48 -89 -130 -177 -190 -205 -72
-33 -173 -29 -236 11 -60 37 -123 113 -170 205 -50 99 -114 294 -136 414 -40
226 -40 225 -54 341 -6 44 -12 98 -15 120 -26 198 -26 870 1 1035 19 122 69
250 126 322 63 80 206 117 321 84 104 -30 185 -140 257 -346 44 -128 52 -135
145 -135 94 0 109 12 106 87 -6 180 -117 379 -268 482 -112 75 -187 99 -328
102 -90 2 -135 -2 -180 -15z"/>
<path d="M4542 4460 c-23 -4 -55 -16 -70 -27 -59 -44 -76 -104 -87 -308 -8
-128 -9 -155 -19 -280 -11 -137 -15 -187 -21 -290 -3 -55 -8 -129 -10 -165
-25 -365 -19 -1196 11 -1480 2 -25 7 -67 10 -95 15 -151 36 -285 49 -320 15
-41 52 -71 98 -81 34 -7 161 -7 188 0 55 16 97 39 107 60 13 28 8 121 -11 226
-15 81 -20 113 -32 240 -3 30 -8 73 -10 95 -19 175 -35 508 -37 765 l-2 165
58 85 c80 117 116 154 116 118 0 -6 66 -237 146 -512 81 -276 152 -521 159
-546 25 -84 86 -287 150 -495 21 -66 38 -124 40 -130 5 -21 17 -52 37 -92 29
-60 83 -84 185 -85 121 0 193 39 193 105 0 17 -21 82 -46 142 -54 132 -219
626 -239 719 -1 6 -5 18 -8 26 -3 8 -31 103 -62 210 -31 107 -64 215 -72 240
-58 177 -158 443 -203 545 -10 22 -29 66 -43 97 l-25 57 136 135 c75 74 171
163 212 198 41 34 81 68 87 75 7 6 72 60 144 120 169 138 190 159 183 177 -12
31 -108 51 -169 35 -25 -7 -195 -133 -376 -279 -137 -110 -303 -262 -442 -403
l-158 -160 6 129 c4 71 8 147 9 169 10 139 18 254 22 280 2 17 6 123 10 237 8
243 4 259 -60 282 -50 19 -97 24 -154 16z"/>
</g>
</svg>
